<svg width="24" height="25" viewBox="0 0 24 25" fill="none" xmlns="http://www.w3.org/2000/svg">
<mask id="mask0_1_2822" style="mask-type:alpha" maskUnits="userSpaceOnUse" x="0" y="0" width="24" height="25">
<rect y="0.5" width="24" height="24" fill="#D9D9D9"/>
</mask>
<g mask="url(#mask0_1_2822)">
<path d="M21.6 23.5L18.525 20.45C18.225 20.6333 17.9042 20.7708 17.5625 20.8625C17.2208 20.9542 16.8667 21 16.5 21C15.4 21 14.4583 20.6083 13.675 19.825C12.8917 19.0417 12.5 18.1 12.5 17C12.5 15.9 12.8917 14.9583 13.675 14.175C14.4583 13.3917 15.4 13 16.5 13C17.6 13 18.5417 13.3917 19.325 14.175C20.1083 14.9583 20.5 15.9 20.5 17C20.5 17.3833 20.45 17.7458 20.35 18.0875C20.25 18.4292 20.1083 18.75 19.925 19.05L23 22.1L21.6 23.5ZM5.5 21C4.4 21 3.45833 20.6083 2.675 19.825C1.89167 19.0417 1.5 18.1 1.5 17C1.5 15.9 1.89167 14.9583 2.675 14.175C3.45833 13.3917 4.4 13 5.5 13C6.6 13 7.54167 13.3917 8.325 14.175C9.10833 14.9583 9.5 15.9 9.5 17C9.5 18.1 9.10833 19.0417 8.325 19.825C7.54167 20.6083 6.6 21 5.5 21ZM5.5 19C6.05 19 6.52083 18.8042 6.9125 18.4125C7.30417 18.0208 7.5 17.55 7.5 17C7.5 16.45 7.30417 15.9792 6.9125 15.5875C6.52083 15.1958 6.05 15 5.5 15C4.95 15 4.47917 15.1958 4.0875 15.5875C3.69583 15.9792 3.5 16.45 3.5 17C3.5 17.55 3.69583 18.0208 4.0875 18.4125C4.47917 18.8042 4.95 19 5.5 19ZM16.5 19C17.05 19 17.5208 18.8042 17.9125 18.4125C18.3042 18.0208 18.5 17.55 18.5 17C18.5 16.45 18.3042 15.9792 17.9125 15.5875C17.5208 15.1958 17.05 15 16.5 15C15.95 15 15.4792 15.1958 15.0875 15.5875C14.6958 15.9792 14.5 16.45 14.5 17C14.5 17.55 14.6958 18.0208 15.0875 18.4125C15.4792 18.8042 15.95 19 16.5 19ZM5.5 10C4.4 10 3.45833 9.60833 2.675 8.825C1.89167 8.04167 1.5 7.1 1.5 6C1.5 4.9 1.89167 3.95833 2.675 3.175C3.45833 2.39167 4.4 2 5.5 2C6.6 2 7.54167 2.39167 8.325 3.175C9.10833 3.95833 9.5 4.9 9.5 6C9.5 7.1 9.10833 8.04167 8.325 8.825C7.54167 9.60833 6.6 10 5.5 10ZM16.5 10C15.4 10 14.4583 9.60833 13.675 8.825C12.8917 8.04167 12.5 7.1 12.5 6C12.5 4.9 12.8917 3.95833 13.675 3.175C14.4583 2.39167 15.4 2 16.5 2C17.6 2 18.5417 2.39167 19.325 3.175C20.1083 3.95833 20.5 4.9 20.5 6C20.5 7.1 20.1083 8.04167 19.325 8.825C18.5417 9.60833 17.6 10 16.5 10ZM5.5 8C6.05 8 6.52083 7.80417 6.9125 7.4125C7.30417 7.02083 7.5 6.55 7.5 6C7.5 5.45 7.30417 4.97917 6.9125 4.5875C6.52083 4.19583 6.05 4 5.5 4C4.95 4 4.47917 4.19583 4.0875 4.5875C3.69583 4.97917 3.5 5.45 3.5 6C3.5 6.55 3.69583 7.02083 4.0875 7.4125C4.47917 7.80417 4.95 8 5.5 8ZM16.5 8C17.05 8 17.5208 7.80417 17.9125 7.4125C18.3042 7.02083 18.5 6.55 18.5 6C18.5 5.45 18.3042 4.97917 17.9125 4.5875C17.5208 4.19583 17.05 4 16.5 4C15.95 4 15.4792 4.19583 15.0875 4.5875C14.6958 4.97917 14.5 5.45 14.5 6C14.5 6.55 14.6958 7.02083 15.0875 7.4125C15.4792 7.80417 15.95 8 16.5 8Z" fill="#433E3F"/>
</g>
</svg>
