<svg width="120" height="47" viewBox="0 0 120 47" fill="none" xmlns="http://www.w3.org/2000/svg">
<mask id="mask0_1_2816" style="mask-type:alpha" maskUnits="userSpaceOnUse" x="48" y="4" width="24" height="25">
<rect x="48" y="4.5" width="24" height="24" fill="#D9D9D9"/>
</mask>
<g mask="url(#mask0_1_2816)">
<path d="M53 25.5C52.45 25.5 51.9792 25.3042 51.5875 24.9125C51.1958 24.5208 51 24.05 51 23.5V9.5C51 8.95 51.1958 8.47917 51.5875 8.0875C51.9792 7.69583 52.45 7.5 53 7.5H57.2C57.4167 6.9 57.7792 6.41667 58.2875 6.05C58.7958 5.68333 59.3667 5.5 60 5.5C60.6333 5.5 61.2042 5.68333 61.7125 6.05C62.2208 6.41667 62.5833 6.9 62.8 7.5H67C67.55 7.5 68.0208 7.69583 68.4125 8.0875C68.8042 8.47917 69 8.95 69 9.5V23.5C69 24.05 68.8042 24.5208 68.4125 24.9125C68.0208 25.3042 67.55 25.5 67 25.5H53ZM53 23.5H67V9.5H53V23.5ZM55 21.5H62V19.5H55V21.5ZM55 17.5H65V15.5H55V17.5ZM55 13.5H65V11.5H55V13.5ZM60 8.75C60.2167 8.75 60.3958 8.67917 60.5375 8.5375C60.6792 8.39583 60.75 8.21667 60.75 8C60.75 7.78333 60.6792 7.60417 60.5375 7.4625C60.3958 7.32083 60.2167 7.25 60 7.25C59.7833 7.25 59.6042 7.32083 59.4625 7.4625C59.3208 7.60417 59.25 7.78333 59.25 8C59.25 8.21667 59.3208 8.39583 59.4625 8.5375C59.6042 8.67917 59.7833 8.75 60 8.75Z" fill="#45464F"/>
</g>
<path d="M49.1332 32.53V39.5H48.2232V36.34H44.6732V39.5H43.7632V32.53H44.6732V35.59H48.2232V32.53H49.1332ZM51.157 33.13C50.9837 33.13 50.837 33.07 50.717 32.95C50.597 32.83 50.537 32.6833 50.537 32.51C50.537 32.3367 50.597 32.19 50.717 32.07C50.837 31.95 50.9837 31.89 51.157 31.89C51.3237 31.89 51.4637 31.95 51.577 32.07C51.697 32.19 51.757 32.3367 51.757 32.51C51.757 32.6833 51.697 32.83 51.577 32.95C51.4637 33.07 51.3237 33.13 51.157 33.13ZM51.597 34.02V39.5H50.687V34.02H51.597ZM55.0879 39.59C54.6679 39.59 54.2913 39.52 53.9579 39.38C53.6246 39.2333 53.3613 39.0333 53.1679 38.78C52.9746 38.52 52.8679 38.2233 52.8479 37.89H53.7879C53.8146 38.1633 53.9413 38.3867 54.1679 38.56C54.4013 38.7333 54.7046 38.82 55.0779 38.82C55.4246 38.82 55.6979 38.7433 55.8979 38.59C56.0979 38.4367 56.1979 38.2433 56.1979 38.01C56.1979 37.77 56.0913 37.5933 55.8779 37.48C55.6646 37.36 55.3346 37.2433 54.8879 37.13C54.4813 37.0233 54.1479 36.9167 53.8879 36.81C53.6346 36.6967 53.4146 36.5333 53.2279 36.32C53.0479 36.1 52.9579 35.8133 52.9579 35.46C52.9579 35.18 53.0413 34.9233 53.2079 34.69C53.3746 34.4567 53.6113 34.2733 53.9179 34.14C54.2246 34 54.5746 33.93 54.9679 33.93C55.5746 33.93 56.0646 34.0833 56.4379 34.39C56.8113 34.6967 57.0113 35.1167 57.0379 35.65H56.1279C56.1079 35.3633 55.9913 35.1333 55.7779 34.96C55.5713 34.7867 55.2913 34.7 54.9379 34.7C54.6113 34.7 54.3513 34.77 54.1579 34.91C53.9646 35.05 53.8679 35.2333 53.8679 35.46C53.8679 35.64 53.9246 35.79 54.0379 35.91C54.1579 36.0233 54.3046 36.1167 54.4779 36.19C54.6579 36.2567 54.9046 36.3333 55.2179 36.42C55.6113 36.5267 55.9313 36.6333 56.1779 36.74C56.4246 36.84 56.6346 36.9933 56.8079 37.2C56.9879 37.4067 57.0813 37.6767 57.0879 38.01C57.0879 38.31 57.0046 38.58 56.8379 38.82C56.6713 39.06 56.4346 39.25 56.1279 39.39C55.8279 39.5233 55.4813 39.59 55.0879 39.59ZM59.4825 34.77V38C59.4825 38.2667 59.5392 38.4567 59.6525 38.57C59.7659 38.6767 59.9625 38.73 60.2425 38.73H60.9125V39.5H60.0925C59.5859 39.5 59.2059 39.3833 58.9525 39.15C58.6992 38.9167 58.5725 38.5333 58.5725 38V34.77H57.8625V34.02H58.5725V32.64H59.4825V34.02H60.9125V34.77H59.4825ZM64.4051 39.59C63.8918 39.59 63.4251 39.4733 63.0051 39.24C62.5918 39.0067 62.2651 38.6767 62.0251 38.25C61.7918 37.8167 61.6751 37.3167 61.6751 36.75C61.6751 36.19 61.7951 35.6967 62.0351 35.27C62.2818 34.8367 62.6151 34.5067 63.0351 34.28C63.4551 34.0467 63.9251 33.93 64.4451 33.93C64.9651 33.93 65.4351 34.0467 65.8551 34.28C66.2751 34.5067 66.6051 34.8333 66.8451 35.26C67.0918 35.6867 67.2151 36.1833 67.2151 36.75C67.2151 37.3167 67.0885 37.8167 66.8351 38.25C66.5885 38.6767 66.2518 39.0067 65.8251 39.24C65.3985 39.4733 64.9251 39.59 64.4051 39.59ZM64.4051 38.79C64.7318 38.79 65.0385 38.7133 65.3251 38.56C65.6118 38.4067 65.8418 38.1767 66.0151 37.87C66.1951 37.5633 66.2851 37.19 66.2851 36.75C66.2851 36.31 66.1985 35.9367 66.0251 35.63C65.8518 35.3233 65.6251 35.0967 65.3451 34.95C65.0651 34.7967 64.7618 34.72 64.4351 34.72C64.1018 34.72 63.7951 34.7967 63.5151 34.95C63.2418 35.0967 63.0218 35.3233 62.8551 35.63C62.6885 35.9367 62.6051 36.31 62.6051 36.75C62.6051 37.1967 62.6851 37.5733 62.8451 37.88C63.0118 38.1867 63.2318 38.4167 63.5051 38.57C63.7785 38.7167 64.0785 38.79 64.4051 38.79ZM69.3216 34.91C69.4816 34.5967 69.7083 34.3533 70.0016 34.18C70.3016 34.0067 70.6649 33.92 71.0916 33.92V34.86H70.8516C69.8316 34.86 69.3216 35.4133 69.3216 36.52V39.5H68.4116V34.02H69.3216V34.91ZM76.8621 34.02L73.5621 42.08H72.6221L73.7021 39.44L71.4921 34.02H72.5021L74.2221 38.46L75.9221 34.02H76.8621Z" fill="#45464F"/>
</svg>
