<svg width="120" height="47" viewBox="0 0 120 47" fill="none" xmlns="http://www.w3.org/2000/svg">
<mask id="mask0_1_2811" style="mask-type:alpha" maskUnits="userSpaceOnUse" x="48" y="4" width="24" height="25">
<rect x="48" y="4.5" width="24" height="24" fill="#D9D9D9"/>
</mask>
<g mask="url(#mask0_1_2811)">
<path d="M52 25.5V13.5L60 7.5L68 13.5V25.5H62V18.5H58V25.5H52Z" fill="#3C5FDD"/>
</g>
<path d="M51.3049 32.55V39.5H50.1649V36.46H46.8949V39.5H45.7549V32.55H46.8949V35.53H50.1649V32.55H51.3049ZM55.1957 39.59C54.6757 39.59 54.2057 39.4733 53.7857 39.24C53.3657 39 53.0357 38.6667 52.7957 38.24C52.5557 37.8067 52.4357 37.3067 52.4357 36.74C52.4357 36.18 52.559 35.6833 52.8057 35.25C53.0523 34.8167 53.389 34.4833 53.8157 34.25C54.2423 34.0167 54.719 33.9 55.2457 33.9C55.7723 33.9 56.249 34.0167 56.6757 34.25C57.1023 34.4833 57.439 34.8167 57.6857 35.25C57.9323 35.6833 58.0557 36.18 58.0557 36.74C58.0557 37.3 57.929 37.7967 57.6757 38.23C57.4223 38.6633 57.0757 39 56.6357 39.24C56.2023 39.4733 55.7223 39.59 55.1957 39.59ZM55.1957 38.6C55.489 38.6 55.7623 38.53 56.0157 38.39C56.2757 38.25 56.4857 38.04 56.6457 37.76C56.8057 37.48 56.8857 37.14 56.8857 36.74C56.8857 36.34 56.809 36.0033 56.6557 35.73C56.5023 35.45 56.299 35.24 56.0457 35.1C55.7923 34.96 55.519 34.89 55.2257 34.89C54.9323 34.89 54.659 34.96 54.4057 35.1C54.159 35.24 53.9623 35.45 53.8157 35.73C53.669 36.0033 53.5957 36.34 53.5957 36.74C53.5957 37.3333 53.7457 37.7933 54.0457 38.12C54.3523 38.44 54.7357 38.6 55.1957 38.6ZM65.8526 33.9C66.286 33.9 66.6726 33.99 67.0126 34.17C67.3593 34.35 67.6293 34.6167 67.8226 34.97C68.0226 35.3233 68.1226 35.75 68.1226 36.25V39.5H66.9926V36.42C66.9926 35.9267 66.8693 35.55 66.6226 35.29C66.376 35.0233 66.0393 34.89 65.6126 34.89C65.186 34.89 64.846 35.0233 64.5926 35.29C64.346 35.55 64.2226 35.9267 64.2226 36.42V39.5H63.0926V36.42C63.0926 35.9267 62.9693 35.55 62.7226 35.29C62.476 35.0233 62.1393 34.89 61.7126 34.89C61.286 34.89 60.946 35.0233 60.6926 35.29C60.446 35.55 60.3226 35.9267 60.3226 36.42V39.5H59.1826V33.99H60.3226V34.62C60.5093 34.3933 60.746 34.2167 61.0326 34.09C61.3193 33.9633 61.626 33.9 61.9526 33.9C62.3926 33.9 62.786 33.9933 63.1326 34.18C63.4793 34.3667 63.746 34.6367 63.9326 34.99C64.0993 34.6567 64.3593 34.3933 64.7126 34.2C65.066 34 65.446 33.9 65.8526 33.9ZM74.6232 36.61C74.6232 36.8167 74.6099 37.0033 74.5832 37.17H70.3732C70.4066 37.61 70.5699 37.9633 70.8632 38.23C71.1566 38.4967 71.5166 38.63 71.9432 38.63C72.5566 38.63 72.9899 38.3733 73.2432 37.86H74.4732C74.3066 38.3667 74.0032 38.7833 73.5632 39.11C73.1299 39.43 72.5899 39.59 71.9432 39.59C71.4166 39.59 70.9432 39.4733 70.5232 39.24C70.1099 39 69.7832 38.6667 69.5432 38.24C69.3099 37.8067 69.1932 37.3067 69.1932 36.74C69.1932 36.1733 69.3066 35.6767 69.5332 35.25C69.7666 34.8167 70.0899 34.4833 70.5032 34.25C70.9232 34.0167 71.4032 33.9 71.9432 33.9C72.4632 33.9 72.9266 34.0133 73.3332 34.24C73.7399 34.4667 74.0566 34.7867 74.2832 35.2C74.5099 35.6067 74.6232 36.0767 74.6232 36.61ZM73.4332 36.25C73.4266 35.83 73.2766 35.4933 72.9832 35.24C72.6899 34.9867 72.3266 34.86 71.8932 34.86C71.4999 34.86 71.1632 34.9867 70.8832 35.24C70.6032 35.4867 70.4366 35.8233 70.3832 36.25H73.4332Z" fill="#3C5FDD"/>
</svg>
